<svg xmlns="http://www.w3.org/2000/svg" width="26.134" height="21" viewBox="0 0 26.134 21"><path d="M3.005,7A1.19,1.19,0,0,0,2,8.313,1.19,1.19,0,0,0,3.005,9.625H27.129a1.19,1.19,0,0,0,1.005-1.312A1.19,1.19,0,0,0,27.129,7Zm0,9.187A1.19,1.19,0,0,0,2,17.5a1.19,1.19,0,0,0,1.005,1.313H27.129A1.19,1.19,0,0,0,28.134,17.5a1.19,1.19,0,0,0-1.005-1.313Zm0,9.187A1.19,1.19,0,0,0,2,26.687,1.19,1.19,0,0,0,3.005,28H27.129a1.19,1.19,0,0,0,1.005-1.312,1.19,1.19,0,0,0-1.005-1.313Z" transform="translate(-2 -7)" fill="#f69353"/></svg>