<svg xmlns="http://www.w3.org/2000/svg" width="88.93" height="88.93" viewBox="0 0 88.93 88.93"><path d="M18.527,0V14.822h7.411V0ZM62.992,0V14.822H70.4V0ZM3.705,11.116A3.5,3.5,0,0,0,0,14.822V25.938a3.5,3.5,0,0,0,3.705,3.705V88.93H85.224V29.643a3.5,3.5,0,0,0,3.705-3.705V14.822a3.5,3.5,0,0,0-3.705-3.705H74.108v7.411H59.287V11.116H29.643v7.411H14.822V11.116Zm7.411,18.527h66.7V81.519h-66.7Zm7.411,7.411v7.411h7.411V37.054Zm14.822,0v7.411h7.411V37.054Zm14.822,0v7.411h7.411V37.054Zm14.822,0v7.411H70.4V37.054ZM44.465,48.17V62.992H59.287V48.17ZM18.527,51.876v7.411h7.411V51.876Zm14.822,0v7.411h7.411V51.876Zm29.643,0v7.411H70.4V51.876ZM18.527,66.7v7.411h7.411V66.7Zm14.822,0v7.411h7.411V66.7Zm14.822,0v7.411h7.411V66.7Zm14.822,0v7.411H70.4V66.7Z" fill="#196e7a"/></svg>