<svg xmlns="http://www.w3.org/2000/svg" xmlns:xlink="http://www.w3.org/1999/xlink" width="130.259" height="100.527" viewBox="0 0 130.259 100.527"><defs><filter id="a" x="3.135" y="34.682" width="75.945" height="50.823" filterUnits="userSpaceOnUse"><feOffset dy="3" input="SourceAlpha"/><feGaussianBlur stdDeviation="2" result="b"/><feFlood flood-opacity="0.161"/><feComposite operator="in" in2="b"/><feComposite in="SourceGraphic"/></filter><filter id="c" x="97.694" y="51.779" width="32.565" height="48.748" filterUnits="userSpaceOnUse"><feOffset dy="3" input="SourceAlpha"/><feGaussianBlur stdDeviation="3" result="d"/><feFlood flood-opacity="0.161"/><feComposite operator="in" in2="d"/><feComposite in="SourceGraphic"/></filter></defs><g transform="translate(0 0)"><path d="M12,46v4.567l9.135,2.284h2.284V46Zm0,0" transform="translate(-12 -3.751)" fill="#37474f"/><path d="M85.419,46v4.567l-9.135,2.284H74V46Zm0,0" transform="translate(-3.204 -3.751)" fill="#37474f"/><g transform="translate(9.135)"><path d="M73.1,38.851a5.815,5.815,0,0,0-1.633.263,4.516,4.516,0,0,0-6.914-1.534,5.692,5.692,0,0,0-6.307-3.18,7.959,7.959,0,0,0-12.913,2.2,5.654,5.654,0,0,0-3.064,1.133,5.64,5.64,0,0,0-8.354,1.708,3.407,3.407,0,0,0-5.214,1.94,3.385,3.385,0,0,0-1.276-.25,3.426,3.426,0,1,0,3.292,4.318,3.4,3.4,0,0,0,3.2-.343,5.64,5.64,0,0,0,8.354,1.708,5.647,5.647,0,0,0,6.575.219,7.857,7.857,0,0,0,3.7.95,7.967,7.967,0,0,0,5.7-2.4A5.721,5.721,0,0,0,59.4,45.7a5.653,5.653,0,0,0,4.26-1.945A4.567,4.567,0,0,0,67.391,45.7c.04,0,.076-.013.116-.013A5.708,5.708,0,1,0,73.1,38.851Zm0,0" transform="translate(-19.433 -5.737)" fill="#bbdefb"/><g transform="matrix(1, 0, 0, 1, -9.13, 0)" filter="url(#a)"><path d="M77.093,80.823H26.851A6.853,6.853,0,0,1,20,73.972V42H83.945V73.972A6.853,6.853,0,0,1,77.093,80.823Zm0,0" transform="translate(-10.87 -4.32)" fill="#e7e7e7"/></g><path d="M45.682,22.149c-1.365-3.533-6.762-4.732-12.057-2.685s-8.475,6.57-7.11,10.1,6.762,4.728,12.057,2.681S47.047,25.677,45.682,22.149Zm0,0" transform="translate(-19.12 -7.657)" fill="#8d6e63"/><path d="M35.082,24.656,75.551,9,77.2,13.26,36.732,28.916Zm0,0" transform="translate(-17.86 -9)" fill="#8d6e63"/><path d="M41.418,23.484c-1.053-2.721-5.246-3.635-9.363-2.043s-6.6,5.089-5.549,7.81,5.245,3.635,9.362,2.043S42.47,26.2,41.418,23.484Zm0,0" transform="translate(-19.111 -7.346)" fill="#6d4c41"/></g></g><g transform="translate(63 25.413)"><path d="M45.42,7.855,35.71,9.473,26,7.855V3H45.42Z" transform="translate(6.366 -3)" fill="#81d4fa"/><path d="M46.946,15.091,40.473,16.71,34,15.091V7h6.473Z" transform="translate(11.312 -0.527)" fill="#0277bd"/><path d="M39.237,6,36,9.237l9.71,6.473Z" transform="translate(12.549 -1.145)" fill="#01579b"/><path d="M34.618,12,33,37.893l1.618,22.656H47.565V12Z" transform="translate(10.694 2.565)" fill="#039be5"/><path d="M31.71,11,22,12.618V61.167H41.42V12.618Z" transform="translate(3.893 1.946)" fill="#81d4fa"/><path d="M28.473,6,22,15.71H41.42L47.893,6Z" transform="translate(3.893 -1.145)" fill="#b3e5fc"/><g transform="matrix(1, 0, 0, 1, -63, -25.41)" filter="url(#c)"><path d="M42.71,31.091C41.091,27.855,41.091,23,34.618,23L33,39.183l1.618,14.565H47.565V34.328A5.749,5.749,0,0,1,42.71,31.091Z" transform="translate(73.69 34.78)" fill="#29b6f6"/></g><path d="M41.42,25.716s-6.473,0-9.71-3.237S26.855,17.624,22,19.243V56.463H41.42Z" transform="translate(3.893 6.65)" fill="#b3e5fc"/><rect width="26" height="35" transform="translate(0.231 27.587)" fill="#ffca28"/><rect width="18" height="35" transform="translate(0.231 27.587)" fill="#ffd54f"/><path d="M37.951,45.319a12.523,12.523,0,0,1-22.915,6.894,11.923,11.923,0,0,1-1.376-2.719,1.891,1.891,0,0,1-.1-.324,12.43,12.43,0,0,1-.664-4.062C12.965,38.183,18.693,26.935,25.587,27a5.959,5.959,0,0,1,1.068.1c0,.016,0,.016.016.016a7.916,7.916,0,0,1,3.382,1.505,16.555,16.555,0,0,1,4.418,5.114A24.177,24.177,0,0,1,37.951,45.319Z" transform="translate(-1.734 11.839)" fill="#bdbdbd"/><path d="M36.333,42.083a12.515,12.515,0,0,1-22.769,7.088,12.43,12.43,0,0,1-.664-4.062C12.965,38.183,18.693,26.935,25.587,27a5.959,5.959,0,0,1,1.068.1c0,.016,0,.016.016.016a7.916,7.916,0,0,1,3.382,1.505,16.555,16.555,0,0,1,4.418,5.114A22.38,22.38,0,0,1,36.333,42.083Z" transform="translate(-1.734 11.839)" fill="#e0e0e0"/></g></svg>