<svg xmlns="http://www.w3.org/2000/svg" width="106" height="106" viewBox="0 0 106 106"><g transform="translate(-991 -609)"><circle cx="53" cy="53" r="53" transform="translate(991 609)" fill="#f7f6f4"/><path d="M11.984,15.986A1,1,0,0,0,11.84,16H7V31a6.883,6.883,0,0,0,3,5.563V66a4,4,0,0,0,8,0V53.582a23.994,23.994,0,0,0,44,0V65.83a4.109,4.109,0,0,0,3.787,4.164A4.018,4.018,0,0,0,70,66V45.617l4-2V27A11.015,11.015,0,0,0,63,16v2l-1-1V34.418a23.985,23.985,0,0,0-41-5.064V16H16.154a.9.9,0,0,0-.315,0H12.154a1,1,0,0,0-.17-.014ZM9,18h2V28a1,1,0,1,0,2,0V18h2V28a1,1,0,1,0,2,0V18h2V31a4.985,4.985,0,0,1-2.5,4.326l-.5.289V66a2,2,0,0,1-4,0V35.615l-.5-.289A4.985,4.985,0,0,1,9,31Zm55,.2A8.889,8.889,0,0,1,72,27V42.383l-4,2V66a1.984,1.984,0,0,1-2.109,2A2.122,2.122,0,0,1,64,65.83ZM40,22A22,22,0,1,1,18,44,21.985,21.985,0,0,1,40,22Zm0,8a1,1,0,1,0,1,1A1,1,0,0,0,40,30Zm-4.967.988a1,1,0,1,0,.916.617A1,1,0,0,0,35.033,30.988Zm9.965,0a1,1,0,1,0,.359.076A1,1,0,0,0,45,30.988ZM30.822,33.807a1,1,0,1,0,.693.293,1,1,0,0,0-.693-.293Zm18.385,0a1,1,0,1,0,.691.293A1,1,0,0,0,49.207,33.809Zm2.811,4.215a1,1,0,1,0,.916.617A1,1,0,0,0,52.018,38.023Zm-24,0a1,1,0,1,0,.359.074A1,1,0,0,0,28.014,38.025ZM27,43a1,1,0,1,0,1,1A1,1,0,0,0,27,43Zm1,4.975a1,1,0,1,0,.916.617A1,1,0,0,0,28,47.975Zm2.824,4.217a1,1,0,1,0,.691.293,1,1,0,0,0-.691-.293Zm4.225,2.818a1,1,0,1,0,.361.076,1,1,0,0,0-.361-.076Z" transform="translate(1005 618.014)" fill="#f69353"/></g></svg>