<svg xmlns="http://www.w3.org/2000/svg" xmlns:xlink="http://www.w3.org/1999/xlink" width="62.417" height="104.98" viewBox="0 0 62.417 104.98"><defs><filter id="a" x="0" y="30.718" width="62.417" height="74.262" filterUnits="userSpaceOnUse"><feOffset dy="3" input="SourceAlpha"/><feGaussianBlur stdDeviation="3" result="b"/><feFlood flood-opacity="0.161"/><feComposite operator="in" in2="b"/><feComposite in="SourceGraphic"/></filter></defs><g transform="translate(9 0)"><g transform="translate(0 0)"><path d="M59.1,47.518A7.169,7.169,0,0,0,57.8,43.472,23.251,23.251,0,0,1,55.448,38H51.656a23.263,23.263,0,0,1-2.345,5.472A7.149,7.149,0,0,0,48,47.518V60.209H59.1Zm0,0" transform="translate(-25.791 -11.032)" fill="#fafafa"/><path d="M25.208,58.875,20.059,81.369a3.174,3.174,0,0,0,3.117,3.78H61.241a3.172,3.172,0,0,0,3.142-3.622L61.728,62.94Zm0,0" transform="translate(-19.999 -15.35)" fill="#ffab40"/><path d="M59.656,73.567l4.737-23.95A1.366,1.366,0,0,0,63.048,48H21.37a1.369,1.369,0,0,0-1.354,1.562l3.16,20.647Zm0,0" transform="translate(-19.999 -13.1)" fill="#e78d42"/><path d="M53.923,64.607l8.74,1.456-.121-.855.415-2.107Zm-22.2,4.815-8.756-1.459.39,2.553-.071.313Zm0,0" transform="translate(-20.612 -16.224)" fill="#fb8c00"/><path d="M62.837,41.313S67.153,33.6,67.55,29.255a3.655,3.655,0,0,0-1.5-3.467l-.945-.632a3.479,3.479,0,0,1-1.484-3.579l.737-2.472a3.475,3.475,0,0,0-2.73-4.093l-2.649-.232a3.484,3.484,0,0,1-2.7-2.569,3.476,3.476,0,0,0-4.929-2.268l-.223.112a3.767,3.767,0,0,1-4.155-.886l-.146-.146a3.479,3.479,0,0,0-5.245.372s-2.538,3.365-4.124,3.365c-3.411,6.73-1.589,30.14-1.589,30.14l25.282,2.28Zm0,0" transform="translate(-23.181 -4.828)" fill="#689f38"/><path d="M61.45,60.9V45.036c0-6.231-4.759-5.617-4.759-19.036H48.759C48.759,39.419,44,38.805,44,45.036V60.9Zm0,0" transform="translate(-24.964 -8.55)" fill="#fafafa"/><path d="M57.518,28.759H49.586A1.589,1.589,0,0,1,48,27.173V25.586A1.589,1.589,0,0,1,49.586,24h7.932A1.589,1.589,0,0,1,59.1,25.586v1.586A1.589,1.589,0,0,1,57.518,28.759Zm0,0" transform="translate(-25.791 -8.137)" fill="#f48fb1"/><path d="M24,15.1C24.087,8.706,26.82,4,30.349,4s6.345,4.706,6.345,11.1c0,4.409-2.819,7.932-6.345,7.932S23.945,19.513,24,15.1Zm0,0" transform="translate(-20.827 -4)" fill="#ffd54f"/><path d="M24,18H36.695V46.554H24Zm0,0" transform="translate(-20.828 -6.895)" fill="#ffd54f"/><path d="M26,27.938a18.072,18.072,0,0,1,3.929-5.8,8.167,8.167,0,0,1,5.589-2.129,18.92,18.92,0,0,1-3.991,5.7A8.48,8.48,0,0,1,26,27.938Zm0,11.1a18.107,18.107,0,0,1,3.929-5.8,8.185,8.185,0,0,1,5.589-2.129,18.92,18.92,0,0,1-3.991,5.7A8.46,8.46,0,0,1,26,39.04Zm0,0" transform="translate(-21.241 -7.31)" fill="#ffb300"/><g transform="translate(0 36.718)"><g transform="matrix(1, 0, 0, 1, -9, -36.72)" filter="url(#a)"><path d="M18,10H62.417V66.262H18Zm0,0" transform="translate(-9 26.72)" fill="#a7cdd4"/></g><path d="M55.689,20.961A2.961,2.961,0,1,1,52.728,18,2.971,2.971,0,0,1,55.689,20.961Zm-17.767,0A2.961,2.961,0,1,1,34.961,18,2.971,2.971,0,0,1,37.922,20.961Zm0,0" transform="translate(-21.636 -12.078)" fill="#666"/><path d="M44.364,36.286A10.3,10.3,0,0,1,34,25.922V21.481a1.481,1.481,0,1,1,2.961,0v4.442a7.4,7.4,0,0,0,14.806,0V21.481a1.481,1.481,0,1,1,2.961,0v4.442A10.3,10.3,0,0,1,44.364,36.286Zm0,0" transform="translate(-22.155 -12.597)" fill="#fff"/></g></g></g></svg>