<svg xmlns="http://www.w3.org/2000/svg" xmlns:xlink="http://www.w3.org/1999/xlink" width="256" height="175" viewBox="0 0 256 175"><defs><filter id="a" x="91" y="45" width="126" height="100" filterUnits="userSpaceOnUse"><feOffset dy="3" input="SourceAlpha"/><feGaussianBlur stdDeviation="3" result="b"/><feFlood flood-opacity="0.161"/><feComposite operator="in" in2="b"/><feComposite in="SourceGraphic"/></filter><filter id="c" x="186.35" y="114.421" width="34.913" height="45.299" filterUnits="userSpaceOnUse"><feOffset dy="3" input="SourceAlpha"/><feGaussianBlur stdDeviation="3" result="d"/><feFlood flood-opacity="0.051"/><feComposite operator="in" in2="d"/><feComposite in="SourceGraphic"/></filter></defs><g transform="translate(-122 -880)"><rect width="256" height="175" transform="translate(122 880)" fill="#fff"/><circle cx="76" cy="76" r="76" transform="translate(173 891)" fill="#d9e1eb"/><g transform="matrix(1, 0, 0, 1, 122, 880)" filter="url(#a)"><rect width="108" height="82" rx="2" transform="translate(100 51)" fill="#fff"/></g><rect width="94" height="16" rx="1" transform="translate(229 942)" fill="#f1f1f1"/><rect width="19" height="19" rx="1" transform="translate(229 962)" fill="rgba(231,231,231,0.56)"/><rect width="19" height="20" rx="1" transform="translate(229 985)" fill="rgba(231,231,231,0.56)"/><rect width="19" height="19" rx="1" transform="translate(254 962)" fill="rgba(231,231,231,0.56)"/><rect width="19" height="20" rx="1" transform="translate(254 985)" fill="#f69353"/><rect width="19" height="19" rx="1" transform="translate(279 962)" fill="rgba(231,231,231,0.56)"/><rect width="19" height="20" rx="1" transform="translate(279 985)" fill="#f69353"/><rect width="19" height="19" rx="1" transform="translate(304 962)" fill="rgba(231,231,231,0.56)"/><path d="M2,0H106a2,2,0,0,1,2,2V5a0,0,0,0,1,0,0H0A0,0,0,0,1,0,5V2A2,2,0,0,1,2,0Z" transform="translate(222 931)" fill="#b7b7b7"/><rect width="19" height="20" rx="1" transform="translate(304 985)" fill="#efdbc4"/><path d="M1,0H18a1,1,0,0,1,1,1V2a0,0,0,0,1,0,0H0A0,0,0,0,1,0,2V1A1,1,0,0,1,1,0Z" transform="translate(304 985)" fill="#f69353"/><rect width="19" height="20" rx="1" transform="translate(279 985)" fill="#efdbc4"/><path d="M1,0H18a1,1,0,0,1,1,1V2a0,0,0,0,1,0,0H0A0,0,0,0,1,0,2V1A1,1,0,0,1,1,0Z" transform="translate(279 985)" fill="#f69353"/><rect width="19" height="20" rx="1" transform="translate(254 985)" fill="#efdbc4"/><path d="M1,0H18a1,1,0,0,1,1,1V2a0,0,0,0,1,0,0H0A0,0,0,0,1,0,2V1A1,1,0,0,1,1,0Z" transform="translate(254 985)" fill="#f69353"/><g transform="translate(317.35 1000.421)"><g transform="matrix(1, 0, 0, 1, -195.35, -120.42)" filter="url(#c)"><path d="M9.7,26.846,6.351,19.137,1.265,23.379A.772.772,0,0,1,0,22.787V.756A.749.749,0,0,1,.457.064a.744.744,0,0,1,.834.158l15.4,15.395a.771.771,0,0,1-.477,1.314l-5.818.522L13.715,25.1a.757.757,0,0,1-.392,1l-1.286.558-1.34.581a.753.753,0,0,1-.994-.39Z" transform="translate(195.35 120.42)" fill="#b7b7b7"/></g></g></g></svg>