<svg xmlns="http://www.w3.org/2000/svg" width="12" height="12" viewBox="0 0 12 12"><path d="M14,2a3.9,3.9,0,0,0-2.213.656,1.6,1.6,0,0,0-.375,1.931A1.74,1.74,0,0,0,13.4,4.156,3.955,3.955,0,0,0,14,2ZM2.9,2.056,2.056,2.9,13.1,13.944l.844-.844L10.231,9.387a2.612,2.612,0,0,0,1.181-1.031,3.068,3.068,0,0,0-2.025-.6,2.077,2.077,0,0,0-.675.112l-.581-.581a2.078,2.078,0,0,0,.113-.675,3.068,3.068,0,0,0-.6-2.025A2.612,2.612,0,0,0,6.613,5.769Zm7.556.6A2.328,2.328,0,0,0,8.6,4.212a1.694,1.694,0,0,0,.544,1.875c.18.061.844-.361,1.144-1.2A3.664,3.664,0,0,0,10.456,2.656ZM12.688,5.45a4.805,4.805,0,0,0-1.575.263c-.9.361-1.261.963-1.2,1.144a1.694,1.694,0,0,0,1.875.544,2.3,2.3,0,0,0,1.556-1.856A1.361,1.361,0,0,0,12.688,5.45ZM4.813,7.344a2.165,2.165,0,0,0-.6,1.5c0,1.32.544,1.613.844,1.613A1.52,1.52,0,0,0,6.013,8.9V8.544ZM3.2,9.087A2.4,2.4,0,0,0,2,11.056c0,1.32.544,1.631.844,1.631A1.55,1.55,0,0,0,3.8,11.112,3.068,3.068,0,0,0,3.2,9.087Zm3.9.9c-.961,0-1.556.6-1.556.956s.293.844,1.613.844a2.292,2.292,0,0,0,1.5-.6l-1.2-1.2ZM4.944,12.2a1.52,1.52,0,0,0-1.556.956c0,.3.293.844,1.613.844a2.448,2.448,0,0,0,1.988-1.2A3.155,3.155,0,0,0,4.944,12.2Z" transform="translate(-2 -2)" fill="#f69353"/></svg>