<svg xmlns="http://www.w3.org/2000/svg" width="55.42" height="58.056" viewBox="0 0 55.42 58.056"><path d="M54.1,58.056H43.544V26.917a1.291,1.291,0,0,1,.077-.38l5.861-12.023,5.8,11.908a1.316,1.316,0,0,1,.14.59V56.737A1.321,1.321,0,0,1,54.1,58.056Zm-13.195,0H1.322A1.321,1.321,0,0,1,0,56.737V26.917a1.214,1.214,0,0,1,.079-.381L5.555,15.272,7.307,14.22l1.774,1.774a3.959,3.959,0,0,0,4.694.675l4.656-2.54L20.3,15.992a3.961,3.961,0,0,0,4.7.676l4.655-2.539,1.735,1.735a4.256,4.256,0,0,0,2.959,1.289,3.615,3.615,0,0,0,.521-.038,3.957,3.957,0,0,0,3.2-2.669L42.357,1.814A2.633,2.633,0,0,1,44.864,0a2.768,2.768,0,0,1,.443.036A2.741,2.741,0,0,1,47.5,2.78v9.73l-6.464,13.3a1.32,1.32,0,0,0-.133.578V58.055ZM14.929,30.641h0a5.966,5.966,0,0,0-4.739,2.476c-3.851,5.09,2.635,10.953,5.076,13.16.181.163.336.3.463.422,1.141,1.065,2.541,2.318,3.274,2.971a1.06,1.06,0,0,0,1.417,0c.732-.651,2.13-1.9,3.275-2.971.127-.119.282-.259.462-.421,2.444-2.21,8.927-8.072,5.077-13.161A5.96,5.96,0,0,0,24.5,30.642c-.074,0-.15,0-.224,0a6.465,6.465,0,0,0-4.559,2.234,6.429,6.429,0,0,0-4.559-2.234c-.074,0-.15,0-.224,0ZM1.319,14.516a1.333,1.333,0,0,1-.795-.266,1.319,1.319,0,0,1-.479-1.4l2.5-9.314C3.41,1.224,5.431,0,8.388,0H40.3a5.278,5.278,0,0,0-.438.965l-4.3,12.649a1.312,1.312,0,0,1-.949.867,1.332,1.332,0,0,1-1.237-.352l-3.26-3.261-6.392,3.486a1.323,1.323,0,0,1-1.566-.224L18.9,10.868l-6.391,3.487a1.32,1.32,0,0,1-1.565-.226L7.712,10.9,2,14.328A1.324,1.324,0,0,1,1.319,14.516Z" fill="#f69353"/></svg>