<svg xmlns="http://www.w3.org/2000/svg" width="49.604" height="45.471" viewBox="0 0 49.604 45.471"><g transform="translate(0 -1)"><path d="M12,3.875V39.528" transform="translate(12.802 3.067)" fill="none" stroke="#fff" stroke-width="2"/><path d="M49.6,44.4V6.512l-.413-.552C49.04,5.758,45.365,1,36.17,1,30.312,1,26.7,2.93,24.8,4.386,22.909,2.93,19.292,1,13.435,1,4.239,1,.564,5.758.413,5.96L0,6.512V44.4Zm-4.134-5.8a20.574,20.574,0,0,0-9.3-2.472A21.813,21.813,0,0,0,24.8,39.811a21.813,21.813,0,0,0-11.368-3.675,20.574,20.574,0,0,0-9.3,2.472V8.021c1-.909,3.8-2.887,9.3-2.887,6.994,0,9.623,3.2,9.714,3.307l1.622,2.11,1.666-2.088c.11-.134,2.739-3.33,9.733-3.33,5.518,0,8.319,1.988,9.3,2.883Z" fill="#fff"/><path d="M15.2,41.136a6.208,6.208,0,0,0,6.2-6.2H9A6.208,6.208,0,0,0,15.2,41.136Z" transform="translate(9.602 5.334)" fill="#fff"/></g></svg>