<svg xmlns="http://www.w3.org/2000/svg" xmlns:xlink="http://www.w3.org/1999/xlink" width="97.801" height="89.66" viewBox="0 0 97.801 89.66"><defs><filter id="a" x="5.77" y="48.862" width="64.421" height="30.66" filterUnits="userSpaceOnUse"><feOffset dy="3" input="SourceAlpha"/><feGaussianBlur stdDeviation="3" result="b"/><feFlood flood-opacity="0.161"/><feComposite operator="in" in2="b"/><feComposite in="SourceGraphic"/></filter><filter id="c" x="54.123" y="28.865" width="43.677" height="60.796" filterUnits="userSpaceOnUse"><feOffset dy="3" input="SourceAlpha"/><feGaussianBlur stdDeviation="3" result="d"/><feFlood flood-opacity="0.161"/><feComposite operator="in" in2="d"/><feComposite in="SourceGraphic"/></filter></defs><g transform="translate(0 0)"><g transform="translate(0 0)"><path d="M6,8H81.962V62.862H6Z" transform="translate(-6 -8)" fill="#546e7a"/><path d="M8,10H75.522V54.311H8Z" transform="translate(-3.78 -5.78)" fill="#bbdefb"/><g transform="matrix(1, 0, 0, 1, 0, 0)" filter="url(#a)"><path d="M29.88,34h12.66v6.33H29.88ZM55.2,40.33H17.22C13,40.33,13,44.55,13,44.55v2.11H59.421V44.55S59.421,40.33,55.2,40.33Z" transform="translate(1.77 20.86)" fill="#455a64"/></g></g><g transform="translate(63.123 34.865)"><g transform="matrix(1, 0, 0, 1, -63.12, -34.86)" filter="url(#c)"><path d="M12,42.516V8.28A4.292,4.292,0,0,1,16.28,4H33.4a4.292,4.292,0,0,1,4.28,4.28V42.516A4.292,4.292,0,0,1,33.4,46.8H16.28A4.292,4.292,0,0,1,12,42.516Z" transform="translate(51.12 30.86)" fill="#37474f"/></g><path d="M33.188,7H16.07A1.011,1.011,0,0,0,15,8.07V39.1a1.011,1.011,0,0,0,1.07,1.07H33.188a1.011,1.011,0,0,0,1.07-1.07V8.07A1.011,1.011,0,0,0,33.188,7Z" transform="translate(-11.79 -3.79)" fill="#bbdefb"/><path d="M21,40h6.419v2.14H21Z" transform="translate(-11.371 -1.484)" fill="#78909c"/></g><g transform="translate(24.607 13.467)"><path d="M26.044,33.99H8.637a1.327,1.327,0,0,1-1.3-1.039L5,21H29.681l-2.4,11.951A1.311,1.311,0,0,1,26.044,33.99Z" transform="translate(-3.701 -10.608)" fill="#388e3c"/><path d="M20,5.39a1.256,1.256,0,0,0-1.819,0L10.39,13.184a1.256,1.256,0,0,0,0,1.819,1.256,1.256,0,0,0,1.819,0L20,7.208A1.256,1.256,0,0,0,20,5.39Z" transform="translate(-5.454 -5)" fill="#2e7d32"/><path d="M32,13.184,24.208,5.39A1.286,1.286,0,0,0,22.39,7.208L30.184,15A1.256,1.256,0,0,0,32,15,1.256,1.256,0,0,0,32,13.184Z" transform="translate(-9.66 -5)" fill="#1b5e20"/><path d="M28.98,20.9H4.3A1.3,1.3,0,0,1,3,19.6V18.3A1.3,1.3,0,0,1,4.3,17H28.98a1.3,1.3,0,0,1,1.3,1.3v1.3A1.3,1.3,0,0,1,28.98,20.9Z" transform="translate(-3 -9.206)" fill="#4caf50"/><path d="M21.495,25H20.2v7.144a.649.649,0,1,0,1.3,0Zm2.6,0h-1.3v7.144a.649.649,0,1,0,1.3,0ZM16.3,25H15v7.144a.649.649,0,0,0,1.3,0Zm2.6,0H17.6v7.144a.649.649,0,1,0,1.3,0Z" transform="translate(-7.206 -12.01)" fill="#1b5e20"/><path d="M33.217,26.383A1.3,1.3,0,0,0,31,27.3v8.442h4.157A1.311,1.311,0,0,0,36.391,34.7l.862-4.286Z" transform="translate(-12.814 -12.361)" fill="#2e7d32"/><path d="M0,0H1.96V9.639H0Z" transform="translate(20.133 19.064) rotate(-23.132)" fill="#bdbdbd"/><path d="M33,28V39.043L36.247,35.8h4.546Z" transform="translate(-13.515 -13.062)" fill="#bdbdbd"/><path d="M32.3,25H31v7.144a.649.649,0,0,0,1.3,0Z" transform="translate(-12.814 -12.01)" fill="#1b5e20"/></g></g></svg>