<svg xmlns="http://www.w3.org/2000/svg" width="106" height="106" viewBox="0 0 106 106"><g transform="translate(-611 -609)"><circle cx="53" cy="53" r="53" transform="translate(611 609)" fill="#f7f6f4"/><path d="M21,17a1,1,0,1,0,1,1A1,1,0,0,0,21,17Zm12,0a1,1,0,1,0,1,1A1,1,0,0,0,33,17ZM21,21a1,1,0,1,0,1,1A1,1,0,0,0,21,21Zm12,0a1,1,0,1,0,1,1A1,1,0,0,0,33,21ZM15,25a1,1,0,1,0,1,1A1,1,0,0,0,15,25Zm6,0a1,1,0,1,0,1,1A1,1,0,0,0,21,25Zm6,0a1,1,0,1,0,1,1A1,1,0,0,0,27,25Zm6,0a1,1,0,1,0,1,1A1,1,0,0,0,33,25Zm6,0a1,1,0,1,0,1,1A1,1,0,0,0,39,25ZM15,29a1,1,0,1,0,1,1A1,1,0,0,0,15,29Zm6,0a1,1,0,1,0,1,1A1,1,0,0,0,21,29Zm6,0a1,1,0,1,0,1,1A1,1,0,0,0,27,29Zm6,0a1,1,0,1,0,1,1A1,1,0,0,0,33,29Zm6,0a1,1,0,1,0,1,1A1,1,0,0,0,39,29ZM5.5,34A3.514,3.514,0,0,0,2,37.5a3.461,3.461,0,0,0,2.539,3.293l1.2,5.973A9.009,9.009,0,0,0,14.559,54H39.441a9.009,9.009,0,0,0,8.824-7.234l1.2-5.973A3.461,3.461,0,0,0,52,37.5V36h8v1a3.016,3.016,0,0,0,3,3H75a2.845,2.845,0,0,0,2.582-2H78V37a3.016,3.016,0,0,0-3-3Zm0,2H50v1.5a1.478,1.478,0,0,1-1.437,1.488l-.785.035L46.3,46.375A6.988,6.988,0,0,1,39.441,52H14.559A6.988,6.988,0,0,1,7.7,46.375L6.227,39.023l-.789-.035A1.495,1.495,0,0,1,5.5,36ZM62,36H75a1,1,0,0,1,0,2H63a.982.982,0,0,1-1-1ZM9,39a1,1,0,1,0,1,1A1,1,0,0,0,9,39Zm4,0a1,1,0,1,0,1,1A1,1,0,0,0,13,39Zm4,0a1,1,0,1,0,1,1A1,1,0,0,0,17,39Zm4,0a1,1,0,1,0,1,1A1,1,0,0,0,21,39Zm4,0a1,1,0,1,0,1,1A1,1,0,0,0,25,39Zm4,0a1,1,0,1,0,1,1A1,1,0,0,0,29,39Zm4,0a1,1,0,1,0,1,1A1,1,0,0,0,33,39Zm4,0a1,1,0,1,0,1,1A1,1,0,0,0,37,39Zm4,0a1,1,0,1,0,1,1A1,1,0,0,0,41,39Zm4,0a1,1,0,1,0,1,1A1,1,0,0,0,45,39Z" transform="translate(630 626)" fill="#f69353"/></g></svg>