<svg xmlns="http://www.w3.org/2000/svg" width="52" height="52" viewBox="0 0 52 52"><path d="M8.8,14c-1.6,0-2.4,1.8-2.4,4,0,2.4.8,4,2.4,4h0c1.6,0,2.4-1.8,2.4-4S10.4,14,8.8,14Z" transform="translate(6.4 14)" fill="#f69353"/><path d="M26,16a8.158,8.158,0,0,1-7.8-6H6a5.893,5.893,0,0,0-6,6V28a5.893,5.893,0,0,0,6,6v8l8-8H26a5.893,5.893,0,0,0,6-6V16ZM19.6,30a36.057,36.057,0,0,1-4.2-1.6,1.2,1.2,0,0,0-.8-.2C12.2,28,10,26,10,22c0-3.4,2-6.2,5.2-6.2,3.4,0,5,2.8,5,6,0,2.8-1,4.6-2.6,5.4h0a11.465,11.465,0,0,0,2.8.8Z" transform="translate(0 10)" fill="#f69353"/><g transform="translate(20)"><path d="M36,0H16a5.893,5.893,0,0,0-6,6V18a5.893,5.893,0,0,0,6,6H28l8,8V24a5.893,5.893,0,0,0,6-6V6A5.893,5.893,0,0,0,36,0ZM28.2,18l-.8-3h-3l-.8,3H21L24.4,6h3.4l3.4,12Z" transform="translate(-10)" fill="#f69353"/><path d="M18.6,4h0c-.2.8-.4,1.8-.6,2.4L17.4,9h2.4l-.6-2.6A4.751,4.751,0,0,1,18.6,4Z" transform="translate(-2.6 4)" fill="#f69353"/></g></svg>