<svg xmlns="http://www.w3.org/2000/svg" width="13.58" height="21" viewBox="0 0 13.58 21">
  <path id="icons8_question_mark" d="M14.109,3C9.77,3,7.31,5.431,7.24,8.949v.176h3.83V8.949a2.587,2.587,0,0,1,2.784-2.557c1.611,0,2.685.931,2.685,2.246s-.551,1.993-2.374,3.081A4.376,4.376,0,0,0,11.62,16.4l.022.6h3.751v-.574c0-1.356.523-2.05,2.4-3.138A5.27,5.27,0,0,0,20.82,8.511C20.82,5.247,18.15,3,14.109,3ZM13.6,19.625A2.192,2.192,0,1,0,13.6,24a2.089,2.089,0,0,0,2.323-2.181A2.092,2.092,0,0,0,13.6,19.625Z" transform="translate(-7.24 -3)" fill="#f69353"/>
</svg>
