<svg xmlns="http://www.w3.org/2000/svg" width="106" height="106" viewBox="0 0 106 106"><g transform="translate(-203 -608)"><circle cx="53" cy="53" r="53" transform="translate(203 608)" fill="#f7f6f4"/><path d="M9.632,8a3.632,3.632,0,1,0,3.632,3.632,3.585,3.585,0,0,0-.358-1.543,8.162,8.162,0,0,1,5.947,6.479L25.662,55.25a5.439,5.439,0,0,0,4.912,4.458,4.54,4.54,0,1,0,7.175.043H49.608a4.492,4.492,0,0,0-.936,2.724,4.54,4.54,0,0,0,9.079,0,4.493,4.493,0,0,0-.936-2.724h4.568V57.935H31.028a3.624,3.624,0,0,1-3.578-3l-1.231-6.983H55.271a6.364,6.364,0,0,0,6.182-4.873l4.692-19.552-44.87-3.664-.635-3.6A10,10,0,0,0,10.806,8Zm0,1.816a1.816,1.816,0,1,1-1.816,1.816A1.8,1.8,0,0,1,9.632,9.816ZM21.6,21.707l42.281,3.454-4.2,17.491a4.53,4.53,0,0,1-4.412,3.479H25.9Zm9.82,5.359a.908.908,0,1,0,.908.908A.91.91,0,0,0,31.421,27.066Zm5.447,0a.908.908,0,1,0,.908.908A.91.91,0,0,0,36.869,27.066Zm5.447,0a.908.908,0,1,0,.908.908A.91.91,0,0,0,42.316,27.066Zm5.447,0a.908.908,0,1,0,.908.908A.91.91,0,0,0,47.764,27.066Zm5.447,0a.908.908,0,1,0,.908.908A.91.91,0,0,0,53.211,27.066ZM31.421,30.7a.908.908,0,1,0,.908.908A.91.91,0,0,0,31.421,30.7Zm5.447,0a.908.908,0,1,0,.908.908A.91.91,0,0,0,36.869,30.7Zm5.447,0a.908.908,0,1,0,.908.908A.91.91,0,0,0,42.316,30.7Zm5.447,0a.908.908,0,1,0,.908.908A.91.91,0,0,0,47.764,30.7Zm5.447,0a.908.908,0,1,0,.908.908A.91.91,0,0,0,53.211,30.7Zm-21.79,3.632a.908.908,0,1,0,.908.908A.91.91,0,0,0,31.421,34.329Zm5.447,0a.908.908,0,1,0,.908.908A.91.91,0,0,0,36.869,34.329Zm5.447,0a.908.908,0,1,0,.908.908A.91.91,0,0,0,42.316,34.329Zm5.447,0a.908.908,0,1,0,.908.908A.91.91,0,0,0,47.764,34.329Zm5.447,0a.908.908,0,1,0,.908.908A.91.91,0,0,0,53.211,34.329Zm-21.79,3.632a.908.908,0,1,0,.908.908A.91.91,0,0,0,31.421,37.961Zm5.447,0a.908.908,0,1,0,.908.908A.91.91,0,0,0,36.869,37.961Zm5.447,0a.908.908,0,1,0,.908.908A.91.91,0,0,0,42.316,37.961Zm5.447,0a.908.908,0,1,0,.908.908A.91.91,0,0,0,47.764,37.961Zm5.447,0a.908.908,0,1,0,.908.908A.91.91,0,0,0,53.211,37.961Zm-21.79,3.632a.908.908,0,1,0,.908.908A.91.91,0,0,0,31.421,41.592Zm5.447,0a.908.908,0,1,0,.908.908A.91.91,0,0,0,36.869,41.592Zm5.447,0a.908.908,0,1,0,.908.908A.91.91,0,0,0,42.316,41.592Zm5.447,0a.908.908,0,1,0,.908.908A.91.91,0,0,0,47.764,41.592Zm5.447,0a.908.908,0,1,0,.908.908A.91.91,0,0,0,53.211,41.592ZM34.145,59.75a2.724,2.724,0,1,1-2.724,2.724A2.711,2.711,0,0,1,34.145,59.75Zm19.066,0a2.724,2.724,0,1,1-2.724,2.724A2.711,2.711,0,0,1,53.211,59.75ZM34.145,61.566a.908.908,0,1,0,.908.908A.91.91,0,0,0,34.145,61.566Zm19.066,0a.908.908,0,1,0,.908.908A.91.91,0,0,0,53.211,61.566Z" transform="translate(220 623)" fill="#f69353"/></g></svg>