<svg xmlns="http://www.w3.org/2000/svg" viewBox="0 0 50.85 24.82"><defs><style>.a{fill:none;stroke:#000;stroke-miterlimit:10;}</style></defs><path class="a" d="M4.75,7.19C6.49,6.93,7.35,4.64,6.61,3A5.05,5.05,0,0,0,2.27.51a2.07,2.07,0,0,0-1,.11C.4,1,.39,2.33.65,3.29,2.23,9.06,8.07,12.91,9.58,18.7a5.23,5.23,0,0,1-.64,4.68c-1.06,1.24-3.43,1.31-4.13-.17A3.74,3.74,0,0,1,4.73,21C6,14.32,7.5,11.33,12.06,6.28c1-1.11,3-2.8,3.49-1.6a42.4,42.4,0,0,1,1.88,6.09,36.53,36.53,0,0,1,2,9.37"/><path class="a" d="M13.06,12.56c1.53-.52,2.81-1.31,4.37-1.79A23.5,23.5,0,0,1,21.27,10"/><path class="a" d="M20.63,16A4.2,4.2,0,0,0,25,15.22,5.85,5.85,0,0,0,26.72,12c.06-1.23-1.43-1.24-2-.14-1.37,2.72-1.93,4.89.51,5.45,3.26.75,3.85-3.14,6.51-5.18a5.21,5.21,0,0,1,1.73-1,1.8,1.8,0,0,1,1.86.45,2.22,2.22,0,0,1,.16,2.1,6.22,6.22,0,0,1-3.76,3.85.48.48,0,0,1-.33,0,.53.53,0,0,1-.24-.25,7.85,7.85,0,0,1,1.48-9.4A6,6,0,0,1,35.94,6.3a2.1,2.1,0,0,1,1.42.26,2.79,2.79,0,0,1,.87,1.54,37.29,37.29,0,0,0,3.64,8.13.78.78,0,0,0,.41.39c.24.06.48-.13.66-.32a4.59,4.59,0,0,0,1.22-3c.4-2.27.74-3.31,3.25-2.48a9.6,9.6,0,0,1,1.49,2.44c.62,1.39,1,3.25,1.84,3.45"/></svg>