<svg xmlns="http://www.w3.org/2000/svg" width="125.761" height="60.604" viewBox="0 0 125.761 60.604"><path d="M362.488,245.22c-5.174-8.67-16.31-12.823-26.246-11.028s-18.454,8.832-23.49,17.582-6.87,19.055-6.811,29.151c.021,3.6.617,7.8,3.735,9.605,2.132,1.236,4.8.924,7.212.431a63.17,63.17,0,0,0,45.543-38.742,82.409,82.409,0,0,0-18.4,22.564,17.72,17.72,0,0,0-2.355,6.1,6.993,6.993,0,0,0,1.842,6.052,7.133,7.133,0,0,0,6.037,1.457,21.1,21.1,0,0,0,5.966-2.342l22.893-11.8c-3.016,3.274-1.06,9,2.7,11.393s8.5,2.4,12.947,2.326l33.656-.535,1.274,1.754" transform="translate(-304.441 -232.255)" fill="none" stroke="#1a1d22" stroke-miterlimit="10" stroke-width="3"/></svg>