<svg xmlns="http://www.w3.org/2000/svg" viewBox="0 0 57.95 24.32"><defs><style>.a{fill:none;stroke:#000;stroke-miterlimit:10;stroke-width:0.5px;}</style></defs><path class="a" d="M4.5,6.94c1.74-.26,2.6-2.55,1.86-4.15A5.05,5.05,0,0,0,2,.26a2.07,2.07,0,0,0-1,.11C.15.78.14,2.08.4,3,2,8.81,7.82,12.66,9.33,18.45a5.23,5.23,0,0,1-.64,4.68C7.63,24.37,5.26,24.44,4.56,23a3.74,3.74,0,0,1-.08-2.2A27.1,27.1,0,0,1,15.08,3.9c1-.76,3.06-2.56,3.53-1.36a40.37,40.37,0,0,1,1.87,6.09,36,36,0,0,1,2,9.36"/><path class="a" d="M17.24,11.29c1.52-.52,2.81-1.31,4.36-1.8a23.7,23.7,0,0,1,3.84-.72"/><path class="a" d="M24.09,14.14a4.22,4.22,0,0,0,4.4-.81,5.88,5.88,0,0,0,1.7-3.25,1,1,0,0,0-2-.14c-.34,2.47-1.92,4.9.51,5.46,3.26.75,3.86-3.15,6.51-5.18A5.38,5.38,0,0,1,37,9.2a1.81,1.81,0,0,1,1.86.46A2.26,2.26,0,0,1,39,11.75a6.24,6.24,0,0,1-3.76,3.85.37.37,0,0,1-.57-.21A7.82,7.82,0,0,1,36.13,6a5.87,5.87,0,0,1,3.28-1.57,2.05,2.05,0,0,1,1.42.25,2.75,2.75,0,0,1,.86,1.54,37.12,37.12,0,0,0,3.65,8.13.8.8,0,0,0,.4.39c.25.07.49-.13.66-.32.78-.86,1.24-2,2-2.85,1.64-1.9,2.74-3.06,4.87-1.73a13.23,13.23,0,0,1,1.63,1.79,7.58,7.58,0,0,0,3,2.57"/></svg>