<svg xmlns="http://www.w3.org/2000/svg" viewBox="0 0 49.92 24.92"><defs><style>.a{fill:none;stroke:#000;stroke-miterlimit:10;}</style></defs><path class="a" d="M4.5,7.25C9.28,5.62,5-.64,1.06.68-2,6.75,8.51,12.63,9.33,18.75c2.22,4.9-5.58,8.68-4.85,2.32-.08-4,6.73-18,10.82-16.33,2.09,6.49,3.26,9.33,3.87,15.45"/><path class="a" d="M12.81,12.62C15.49,11.5,18,10.28,21,10.1"/><path class="a" d="M20.37,16.09c5,2.49,8.39-7.72,4.12-4.2-2.1,2.49-1.93,4.89.51,5.45,4,1.4,5.47-7.24,10.1-5.74,2.6,1.29-1,7.21-3.6,6C28.73,15.72,30,10,32.41,7.93c1.5-1.47,5.06-2.75,5.57.23.54,2.62,2.59,9,4.7,8.2,2.3-1.07-1-7,3.13-5.24,2.3,1.11,2.95,3.75,3.65,5.38"/></svg>