<svg xmlns="http://www.w3.org/2000/svg" width="12.504" height="12.52" viewBox="0 0 12.504 12.52"><path d="M11.074,1.971a.625.625,0,0,0-.559.879,2.363,2.363,0,0,1-.079,2.224A5.848,5.848,0,0,0,8.02,3.889a1.258,1.258,0,0,0-1.338.595c-.75,1.288-1.388,2.4-1.925,3.362a6.862,6.862,0,0,1,1.456,1.22.636.636,0,0,1-.038.888.657.657,0,0,1-.425.162.64.64,0,0,1-.463-.2A5.8,5.8,0,0,0,4.15,8.939c-2.569,4.7-2.263,5.014-1.938,5.339a.6.6,0,0,0,.481.212c.65,0,2.238-.631,7.082-3.394A7.013,7.013,0,0,0,8.431,9.309.628.628,0,0,1,9.32,8.42a8.246,8.246,0,0,1,1.537,2.051c.369-.206.75-.432,1.15-.663A1.249,1.249,0,0,0,12.6,8.464a5.912,5.912,0,0,0-1.181-2.4,2.781,2.781,0,0,1,2.26-.161.625.625,0,1,0,.394-1.187,4.42,4.42,0,0,0-1.2-.216l.827-.827a.625.625,0,1,0-.884-.884l-.842.842a4.116,4.116,0,0,0-.309-1.275A.625.625,0,0,0,11.074,1.971Z" transform="translate(-1.999 -1.97)" fill="#f69353"/></svg>